# xmcd CD database file
#
# Track frame offsets:
#	150
#	21349
#	42379
#	59444
#	76767
#	90732
#	107067
#	125579
#	145744
#	161945
#	185187
#
# Disc length: 2687 seconds
#
# Revision: 0
# Processed by: cddbd v1.5.2PL0 Copyright (c) Steve Scherf et al.
# Submitted via: CDex 1.51
#
DISCID=9b0a7d0b
DTITLE=Reba - Reba Duets
DYEAR=2007
DGENRE=Country
TTITLE0=When You Love Someone Like That
TTITLE1=Does The Wind Still Blow in Oklahoma
TTITLE2=Because of You
TTITLE3=Faith in Love
TTITLE4=She Can't Save Him
TTITLE5=Everyday People
TTITLE6=Every Other Weekend
TTITLE7=These Broken Hearts
TTITLE8=Sleeping with the Telephone
TTITLE9=The Only Promise That Remains
TTITLE10=Break Each Other's Hearts Again
EXTD=YEAR: 2007
EXTT0=
EXTT1=
EXTT2=
EXTT3=
EXTT4=
EXTT5=
EXTT6=
EXTT7=
EXTT8=
EXTT9=
EXTT10=
PLAYORDER=
